<?xml version="1.0" encoding="UTF-8" standalone="no"?>
<!-- Created with Inkscape (http://www.inkscape.org/) -->

<svg
        width="64mm"
        height="64mm"
        viewBox="0 0 64 64"
        version="1.1"
        id="svg1"
        xmlns="http://www.w3.org/2000/svg"
        xmlns:svg="http://www.w3.org/2000/svg">
    <defs
            id="defs1"/>
    <g
            id="layer1">
        <g
                id="g15"
                transform="matrix(0.9375,0,0,0.9375,2,1.9999972)">
            <path
                    id="path13"
                    style="display:inline;opacity:1.0;fill:#000000;stroke-width:0.0906823"
                    d="m 32.00009,0 c -7.980513,0 -2.178731,5.886001 -9.551764,8.940011 -7.373031,3.054005 -7.432551,-5.210562 -13.075625,0.432515 -5.643075,5.64307 2.62132,5.70259 -0.43269,13.07562 C 5.886002,29.821186 0,24.019576 0,32.000086 c 0,7.98052 5.886001,2.17874 8.940011,9.55177 3.05401,7.37303 -5.210385,7.43255 0.43269,13.07562 5.643075,5.64308 5.702592,-2.62149 13.075625,0.43252 7.373032,3.05401 1.571251,8.94001 9.551764,8.94001 7.980514,0 2.178729,-5.886 9.551763,-8.94001 7.373031,-3.05401 7.432552,5.21056 13.075624,-0.43252 5.643073,-5.64307 -2.621323,-5.70259 0.432687,-13.07562 C 58.114178,34.178826 64,39.980606 64,32.000086 c 0,-7.98051 -5.885822,-2.1789 -8.939836,-9.55194 -3.054005,-7.37303 5.210386,-7.43255 -0.432687,-13.07562 C 48.984405,3.729449 48.924889,11.994016 41.551853,8.940011 34.178822,5.886001 39.980599,0 32.00009,0 Z m 0,18.322636 A 13.677336,13.677336 0 0 1 45.677371,32.000086 13.677336,13.677336 0 0 1 32.00009,45.677376 13.677336,13.677336 0 0 1 18.322631,32.000086 13.677336,13.677336 0 0 1 32.00009,18.322636 Z"/>
        </g>
    </g>
</svg>
